<?xml version="1.0" encoding="UTF-8"?>
<svg version="1.1" xmlns="http://www.w3.org/2000/svg" width="404" height="82">
<path d="M0 0 C132.66 0 265.32 0 402 0 C402 26.73 402 53.46 402 81 C269.34 81 136.68 81 0 81 C0 54.27 0 27.54 0 0 Z " fill="#FDFDFC" transform="translate(1,1)"/>
<path d="M0 0 C0.99 0 1.98 0 3 0 C3.33 2.97 3.66 5.94 4 9 C4.98742187 8.4225 5.97484375 7.845 6.9921875 7.25 C8.28632735 6.499774 9.58060537 5.74978632 10.875 5 C11.52597656 4.6184375 12.17695312 4.236875 12.84765625 3.84375 C17.7734375 1 17.7734375 1 20 1 C22.82179807 11.44162589 25.52393914 21.9093797 28.14697266 32.40258789 C28.76079201 34.85562872 29.37840616 37.30769633 29.99609375 39.75976562 C30.38824975 41.32546352 30.78018552 42.89121659 31.171875 44.45703125 C31.3561908 45.18710892 31.54050659 45.91718658 31.73040771 46.66938782 C33 51.77110798 33 51.77110798 33 54 C23.76 54 14.52 54 5 54 C5.73004429 48.88968995 6.64749012 44.22985665 8.06640625 39.31640625 C8.26475571 38.61603745 8.46310516 37.91566864 8.66746521 37.19407654 C9.29489603 34.98231683 9.92858302 32.77240837 10.5625 30.5625 C10.99195322 29.05285287 11.42099366 27.54308825 11.84960938 26.03320312 C12.89497465 22.35409389 13.94595013 18.6766301 15 15 C15.66 15.33 16.32 15.66 17 16 C17.45888243 23.79280703 15.81385628 30.15190624 13.5 37.5625 C13.16613281 38.66658203 12.83226562 39.77066406 12.48828125 40.90820312 C11.66990571 43.60884242 10.83647982 46.30491324 10 49 C15.94 49 21.88 49 28 49 C27.278125 46.463125 26.55625 43.92625 25.8125 41.3125 C23.79019864 34.09714518 21.93337846 26.84956221 20.1875 19.5625 C19.96876221 18.65733643 19.75002441 17.75217285 19.5246582 16.81958008 C19.32445068 15.97290771 19.12424316 15.12623535 18.91796875 14.25390625 C18.65149536 13.12964233 18.65149536 13.12964233 18.37963867 11.98266602 C18 10 18 10 18 7 C15.66831771 8.15831959 13.36453658 9.34772268 11.0625 10.5625 C10.0734668 11.04686523 10.0734668 11.04686523 9.06445312 11.54101562 C6.86044622 12.66163683 6.86044622 12.66163683 4 15 C3.1785674 18.58035708 3.1785674 18.58035708 3 22 C2.01 22.66 1.02 23.32 0 24 C-0.33 22.02 -0.66 20.04 -1 18 C-6.02382238 19.86551084 -10.52241504 22.15632488 -13.05072021 27.02215576 C-15.34960623 32.98902319 -16.7371698 39.22233731 -18.1875 45.4375 C-18.6633673 47.33367807 -19.14315111 49.22887778 -19.62695312 51.12304688 C-20.79684662 55.73863323 -21.91266876 60.36430106 -23 65 C-17.72 65 -12.44 65 -7 65 C-7.44472656 63.19273438 -7.88945313 61.38546875 -8.34765625 59.5234375 C-8.91987185 57.14076926 -9.49145332 54.75794866 -10.0625 52.375 C-10.35705078 51.18519531 -10.65160156 49.99539062 -10.95507812 48.76953125 C-11.3659668 47.03896484 -11.3659668 47.03896484 -11.78515625 45.2734375 C-12.04176025 44.21560059 -12.29836426 43.15776367 -12.56274414 42.06787109 C-13.03210422 38.77475065 -12.71379413 36.23219536 -12 33 C-11.34 33 -10.68 33 -10 33 C-8.85461673 37.48253056 -7.71547027 41.96658277 -6.58203125 46.45214844 C-6.19571476 47.97732074 -5.80770854 49.50206608 -5.41796875 51.02636719 C-4.85750851 53.21959681 -4.30317706 55.41429866 -3.75 57.609375 C-3.57500977 58.2886908 -3.40001953 58.96800659 -3.21972656 59.66790771 C-2.40386068 62.92983226 -2 65.60496249 -2 69 C-10.58 69 -19.16 69 -28 69 C-26.2501221 60.25061051 -24.1940153 51.73044443 -21.85131836 43.1394043 C-21.40687717 41.49779973 -20.96975611 39.85419668 -20.53979492 38.20874023 C-19.91137524 35.80500514 -19.26097117 33.40819088 -18.60546875 31.01171875 C-18.41881149 30.28143967 -18.23215424 29.55116058 -18.0398407 28.79875183 C-16.67895413 23.95625226 -14.8532119 21.21144854 -11 18 C-9.27384406 17.09861975 -7.52342136 16.24191119 -5.75 15.4375 C-2.34762141 13.52429305 -1.21535927 12.75763781 -0.1328125 8.94921875 C0.10147629 5.92831331 0.16636044 3.02384563 0 0 Z " fill="#162E46" transform="translate(110,2)"/>
<path d="M0 0 C2 3 2 3 2 5 C1.07171387 5.51272461 0.14342773 6.02544922 -0.81298828 6.55371094 C-5.18973408 9.34864939 -5.80851014 13.31709853 -6.9921875 18.140625 C-7.22785431 19.02280701 -7.46352112 19.90498901 -7.70632935 20.81390381 C-8.450883 23.62076448 -9.16323153 26.43466714 -9.875 29.25 C-10.37549907 31.1594072 -10.87808055 33.06826985 -11.3828125 34.9765625 C-12.61275571 39.64507723 -13.81389292 44.32016482 -15 49 C-9.72 49 -4.44 49 1 49 C0.55527344 47.19273438 0.11054687 45.38546875 -0.34765625 43.5234375 C-0.91987185 41.14076926 -1.49145332 38.75794866 -2.0625 36.375 C-2.35705078 35.18519531 -2.65160156 33.99539062 -2.95507812 32.76953125 C-3.22900391 31.61582031 -3.50292969 30.46210937 -3.78515625 29.2734375 C-4.04176025 28.21560059 -4.29836426 27.15776367 -4.56274414 26.06787109 C-5.03210422 22.77475065 -4.71379413 20.23219536 -4 17 C-3.34 17 -2.68 17 -2 17 C-0.85461673 21.48253056 0.28452973 25.96658277 1.41796875 30.45214844 C1.80428524 31.97732074 2.19229146 33.50206608 2.58203125 35.02636719 C3.14249149 37.21959681 3.69682294 39.41429866 4.25 41.609375 C4.42499023 42.2886908 4.59998047 42.96800659 4.78027344 43.66790771 C5.59613932 46.92983226 6 49.60496249 6 53 C-2.58 53 -11.16 53 -20 53 C-18.2501221 44.25061051 -16.1940153 35.73044443 -13.85131836 27.1394043 C-13.40687717 25.49779973 -12.96975611 23.85419668 -12.53979492 22.20874023 C-11.91137524 19.80500514 -11.26097117 17.40819088 -10.60546875 15.01171875 C-10.41881149 14.28143967 -10.23215424 13.55116058 -10.0398407 12.79875183 C-8.29158534 6.57786172 -5.27349611 3.51566407 0 0 Z " fill="#183B63" transform="translate(102,18)"/>
<path d="M0 0 C0.33 0 0.66 0 1 0 C2.28466174 5.2320355 3.56633478 10.46479045 4.84521484 15.69824219 C5.28091187 17.47936903 5.71743226 19.26029466 6.15478516 21.04101562 C6.78242898 23.59713425 7.40713099 26.15395627 8.03125 28.7109375 C8.22811401 29.50994476 8.42497803 30.30895203 8.62780762 31.13217163 C10 36.77225659 10 36.77225659 10 39 C4.06 39 -1.88 39 -8 39 C-6.94014656 33.17080606 -5.61028512 27.60486737 -3.875 21.9375 C-2.22836782 16.35724649 -1.60081061 11.78824616 -2 6 C-2.66 6 -3.32 6 -4 6 C-3.34 4.68 -2.68 3.36 -2 2 C-1.34 2 -0.68 2 0 2 C0 1.34 0 0.68 0 0 Z " fill="#F9FAFA" transform="translate(128,12)"/>
<path d="M0 0 C1.32 0 2.64 0 4 0 C4 1.98 4 3.96 4 6 C5.258125 5.938125 6.51625 5.87625 7.8125 5.8125 C10.34881415 5.83498505 11.76123318 5.88423427 14.0625 7 C15.66005288 10.40811282 14.70425858 13.36133068 14 17 C13.67 17.33 13.34 17.66 13 18 C11.47480724 17.91062197 9.95318071 17.75462854 8.4375 17.5625 C7.61121094 17.46066406 6.78492188 17.35882812 5.93359375 17.25390625 C5.29550781 17.17011719 4.65742188 17.08632813 4 17 C4 17.66 4 18.32 4 19 C-2.75 19.125 -2.75 19.125 -5 18 C-5 15.03 -5 12.06 -5 9 C-5.99 9 -6.98 9 -8 9 C-8 11.97 -8 14.94 -8 18 C-8.99 18 -9.98 18 -11 18 C-11 12.39 -11 6.78 -11 1 C-10.01 1 -9.02 1 -8 1 C-7.67 2.65 -7.34 4.3 -7 6 C-5.35 6.33 -3.7 6.66 -2 7 C-1.67 7.99 -1.34 8.98 -1 10 C-0.67 6.7 -0.34 3.4 0 0 Z " fill="#F5FBFA" transform="translate(233,7)"/>
<path d="M0 0 C1.32 0.33 2.64 0.66 4 1 C4 1.99 4 2.98 4 4 C3.34 4 2.68 4 2 4 C2.31461203 11.42484392 3.66252937 18.29255048 5.62792969 25.42773438 C6.64553242 29.19566521 7 32.0187292 7 36 C1.72 36 -3.56 36 -9 36 C-7.63590779 27.75344255 -5.68883927 19.84039355 -3.375 11.8125 C-2.88773437 10.09836914 -2.88773437 10.09836914 -2.390625 8.34960938 C-1.598366 5.56505201 -0.80142644 2.78192991 0 0 Z " fill="#F8FAF9" transform="translate(96,31)"/>
<path d="M0 0 C2.97 0 5.94 0 9 0 C8.67 5.94 8.34 11.88 8 18 C5.36 18 2.72 18 0 18 C-2.5 15.5 -2.5 15.5 -4 13 C-4.33 14.65 -4.66 16.3 -5 18 C-5.99 18 -6.98 18 -8 18 C-8 12.39 -8 6.78 -8 1 C-7.01 1 -6.02 1 -5 1 C-4.67 2.65 -4.34 4.3 -4 6 C-3.525625 5.01 -3.05125 4.02 -2.5625 3 C-1.716875 2.01 -0.87125 1.02 0 0 Z " fill="#A7B3AE" transform="translate(302,7)"/>
<path d="M0 0 C1.15628906 -0.00773437 2.31257813 -0.01546875 3.50390625 -0.0234375 C4.47199219 0.10804687 5.44007813 0.23953125 6.4375 0.375 C8.64664 3.68871 8.66231553 4.7196021 8.5625 8.5625 C8.54445313 9.46355469 8.52640625 10.36460938 8.5078125 11.29296875 C8.48460937 11.98003906 8.46140625 12.66710938 8.4375 13.375 C5.99933415 13.4559723 3.56385616 13.51546972 1.125 13.5625 C0.08956055 13.60020508 0.08956055 13.60020508 -0.96679688 13.63867188 C-6.05186074 13.71236845 -6.05186074 13.71236845 -8.51953125 12.08203125 C-10.28807834 9.18744293 -9.91437635 6.65917924 -9.5625 3.375 C-7.11158906 -0.35726438 -4.20561369 -0.02819406 0 0 Z " fill="#ECF1EF" transform="translate(314.5625,36.625)"/>
<path d="M0 0 C0.66 0 1.32 0 2 0 C3.14538327 4.48253056 4.28452973 8.96658277 5.41796875 13.45214844 C5.80428524 14.97732074 6.19229146 16.50206608 6.58203125 18.02636719 C7.14249149 20.21959681 7.69682294 22.41429866 8.25 24.609375 C8.42499023 25.2886908 8.59998047 25.96800659 8.78027344 26.66790771 C9.59613932 29.92983226 10 32.60496249 10 36 C2.41 36 -5.18 36 -13 36 C-13 35.67 -13 35.34 -13 35 C-10.525 34.505 -10.525 34.505 -8 34 C-8.99 33.34 -9.98 32.68 -11 32 C-5.72 32 -0.44 32 5 32 C4.55527344 30.19273438 4.11054687 28.38546875 3.65234375 26.5234375 C3.08012815 24.14076926 2.50854668 21.75794866 1.9375 19.375 C1.64294922 18.18519531 1.34839844 16.99539062 1.04492188 15.76953125 C0.77099609 14.61582031 0.49707031 13.46210937 0.21484375 12.2734375 C-0.04176025 11.21560059 -0.29836426 10.15776367 -0.56274414 9.06787109 C-1.03210422 5.77475065 -0.71379413 3.23219536 0 0 Z " fill="#193759" transform="translate(98,35)"/>
<path d="M0 0 C1.67542976 0.28604898 3.34385343 0.61781233 5 1 C5.93065133 3.60582371 6.14917407 4.64198224 5.0625 7.25 C4.711875 7.8275 4.36125 8.405 4 9 C4.33 9.33 4.66 9.66 5 10 C5.33 9.01 5.66 8.02 6 7 C6.99 7 7.98 7 9 7 C8.79375 8.0725 8.5875 9.145 8.375 10.25 C8.0123809 13.87619096 8.01637931 15.08291076 10 18 C9.278125 17.814375 8.55625 17.62875 7.8125 17.4375 C5.02174231 16.83182862 5.02174231 16.83182862 2.375 17.5625 C0 18 0 18 -3 16 C-3.30994113 12.43567696 -2.99154586 9.41532462 -2 6 C-1.835 5.113125 -1.67 4.22625 -1.5 3.3125 C-1 1 -1 1 0 0 Z " fill="#112C20" transform="translate(213,32)"/>
<path d="M0 0 C2.05078125 0.03255208 4.1015625 0.06510417 6.15234375 0.09765625 C6.23311338 2.5566428 6.29271518 5.01299367 6.33984375 7.47265625 C6.37754883 8.52066406 6.37754883 8.52066406 6.41601562 9.58984375 C6.4453125 11.62109375 6.4453125 11.62109375 6.15234375 15.09765625 C3.15234375 17.09765625 3.15234375 17.09765625 -0.03515625 16.72265625 C-0.96328125 16.51640625 -1.89140625 16.31015625 -2.84765625 16.09765625 C-2.84765625 15.10765625 -2.84765625 14.11765625 -2.84765625 13.09765625 C0.12234375 13.59265625 0.12234375 13.59265625 3.15234375 14.09765625 C2.82234375 13.43765625 2.49234375 12.77765625 2.15234375 12.09765625 C1.51296875 11.97390625 0.87359375 11.85015625 0.21484375 11.72265625 C-1.84765625 11.09765625 -1.84765625 11.09765625 -3.16015625 9.41015625 C-4.07012956 6.34933694 -3.59830105 4.16847591 -2.84765625 1.09765625 C-1.84765625 0.09765625 -1.84765625 0.09765625 0 0 Z " fill="#1E392C" transform="translate(263.84765625,12.90234375)"/>
<path d="M0 0 C2.64 0 5.28 0 8 0 C8.08076963 2.45898655 8.14037143 4.91533742 8.1875 7.375 C8.22520508 8.42300781 8.22520508 8.42300781 8.26367188 9.4921875 C8.29296875 11.5234375 8.29296875 11.5234375 8 15 C5 17 5 17 1.8125 16.625 C0.884375 16.41875 -0.04375 16.2125 -1 16 C-1 15.01 -1 14.02 -1 13 C1.97 13.495 1.97 13.495 5 14 C4.67 13.34 4.34 12.68 4 12 C3.360625 11.87625 2.72125 11.7525 2.0625 11.625 C0 11 0 11 -1.3125 9.25 C-2.36935601 5.79119852 -1.58745007 3.17490013 0 0 Z " fill="#213C2F" transform="translate(331,13)"/>
<path d="M0 0 C0.99713207 3.71746326 1.99108564 7.43567961 2.9765625 11.15625 C3.54318937 13.28434481 4.11544928 15.41105018 4.7109375 17.53125 C5.89347664 21.85008858 6.18475596 25.56585696 6 30 C5.01 30 4.02 30 3 30 C2.16114623 26.56382292 1.32987081 23.12585663 0.5 19.6875 C0.26152344 18.71103516 0.02304688 17.73457031 -0.22265625 16.72851562 C-0.44824219 15.79072266 -0.67382812 14.85292969 -0.90625 13.88671875 C-1.11572266 13.02264404 -1.32519531 12.15856934 -1.54101562 11.26831055 C-2 9 -2 9 -2 6 C-3.1446875 6.5259375 -3.1446875 6.5259375 -4.3125 7.0625 C-7 8 -7 8 -10 7 C-8.60449526 2.81348579 -4.64858615 0 0 0 Z " fill="#11273C" transform="translate(130,3)"/>
<path d="M0 0 C0.99 0 1.98 0 3 0 C3 5.94 3 11.88 3 18 C-4 18 -4 18 -5.9375 16.9375 C-7.59162584 13.92115289 -7.30575763 11.36333392 -7 8 C-5 6 -5 6 -2.375 5.875 C-1.59125 5.91625 -0.8075 5.9575 0 6 C0 4.02 0 2.04 0 0 Z " fill="#193326" transform="translate(279,32)"/>
<path d="M0 0 C0.99 0 1.98 0 3 0 C3 1.98 3 3.96 3 6 C4.27875 5.79375 5.5575 5.5875 6.875 5.375 C9.0546875 5.0234375 9.0546875 5.0234375 11 5 C13 7 13 7 13.265625 8.875 C13.26046875 9.57625 13.2553125 10.2775 13.25 11 C13.25515625 11.70125 13.2603125 12.4025 13.265625 13.125 C13 15 13 15 11 17 C7.875 17.125 7.875 17.125 5 17 C2.90649311 13.5980513 2.82057837 10.94727588 3 7 C2.01 7 1.02 7 0 7 C0 4.69 0 2.38 0 0 Z " fill="#384F45" transform="translate(273,8)"/>
<path d="M0 0 C0.99 0.33 1.98 0.66 3 1 C4.04691167 3.30615472 4.89744996 5.48336816 5.6875 7.875 C5.91244141 8.51308594 6.13738281 9.15117188 6.36914062 9.80859375 C7.350435 12.66597979 8 14.95856532 8 18 C7.01 18 6.02 18 5 18 C4.67 17.01 4.34 16.02 4 15 C1.03 14.505 1.03 14.505 -2 14 C-2.33 15.32 -2.66 16.64 -3 18 C-3.99 18 -4.98 18 -6 18 C-5.31583566 13.82423832 -3.98634991 10.11919593 -2.4375 6.1875 C-1.75494141 4.44533203 -1.75494141 4.44533203 -1.05859375 2.66796875 C-0.70925781 1.78753906 -0.35992187 0.90710937 0 0 Z " fill="#173125" transform="translate(263,32)"/>
<path d="M0 0 C0.99 0 1.98 0 3 0 C3.33 1.65 3.66 3.3 4 5 C4.598125 4.175 5.19625 3.35 5.8125 2.5 C6.534375 1.675 7.25625 0.85 8 0 C8.99 0 9.98 0 11 0 C10.566875 0.8353125 10.566875 0.8353125 10.125 1.6875 C9.75375 2.450625 9.3825 3.21375 9 4 C8.54625 4.78375 8.0925 5.5675 7.625 6.375 C6.62921945 9.211948 6.62921945 9.211948 8.875 12.1875 C9.57625 13.115625 10.2775 14.04375 11 15 C11 15.66 11 16.32 11 17 C8.11424181 16.60196439 7.17810487 16.20990931 5.25 13.9375 C4.8375 13.298125 4.425 12.65875 4 12 C3.67 13.65 3.34 15.3 3 17 C2.01 17 1.02 17 0 17 C0 11.39 0 5.78 0 0 Z " fill="#1F392D" transform="translate(294,8)"/>
<path d="M0 0 C8.91 0 17.82 0 27 0 C27 1.32 27 2.64 27 4 C18.09 4 9.18 4 0 4 C0 2.68 0 1.36 0 0 Z " fill="#0B2033" transform="translate(115,67)"/>
<path d="M0 0 C1.423125 0.2475 1.423125 0.2475 2.875 0.5 C3.535 1.49 4.195 2.48 4.875 3.5 C2.875 5.5 2.875 5.5 0.25 5.625 C-0.53375 5.58375 -1.3175 5.5425 -2.125 5.5 C-3.14040112 9.60223585 -3.14040112 9.60223585 -2.125 13.5 C-0.145 13.5 1.835 13.5 3.875 13.5 C4.205 14.49 4.535 15.48 4.875 16.5 C1.875 18.5 1.875 18.5 -1.125 18.375 C-4.125 17.5 -4.125 17.5 -6 15.9375 C-7.61122454 12.4465135 -7.78263617 9.23153106 -7.125 5.5 C-5.10895056 1.77806258 -4.21371532 0.67419445 0 0 Z " fill="#1A3427" transform="translate(236.125,31.5)"/>
<path d="M0 0 C3.29714793 0.32971479 4.6226839 0.6226839 7 3 C7.55186722 9.07053942 7.55186722 9.07053942 5.8125 12 C4 13 4 13 1.4375 12.9375 C-1 12 -1 12 -2.375 10.3125 C-3.20815264 7.22983524 -2.80044982 5.06839098 -2 2 C-1.34 1.34 -0.68 0.68 0 0 Z " fill="#203A2D" transform="translate(244,37)"/>
<path d="M0 0 C0.78375 0.2475 1.5675 0.495 2.375 0.75 C3.48147808 2.96295616 3.57088368 4.29672699 3.625 6.75 C3.66367187 7.801875 3.66367187 7.801875 3.703125 8.875 C3.59484375 9.49375 3.4865625 10.1125 3.375 10.75 C0.375 12.75 0.375 12.75 -2.1875 12.625 C-4.625 11.75 -4.625 11.75 -6 10.0625 C-6.84125948 6.94983994 -6.49714682 4.83605799 -5.625 1.75 C-2.625 -0.25 -2.625 -0.25 0 0 Z " fill="#1C382A" transform="translate(299.625,37.25)"/>
<path d="M0 0 C2.78921273 -0.42910965 4.3767124 -0.33242006 6.875 1 C8.76850223 4.36622618 7.71948967 7.2826367 7 11 C6 12 6 12 3.0625 12.1875 C0 12 0 12 -2 10 C-2.31537716 5.66356399 -2.44897847 3.67346771 0 0 Z " fill="#1B3529" transform="translate(240,13)"/>
<path d="M0 0 C2.33299825 0.03954234 4.66708189 0.04401732 7 0 C7 1.98 7 3.96 7 6 C1 6 -5 6 -11 6 C-11.33 4.35 -11.66 2.7 -12 1 C-11.01 0.67 -10.02 0.34 -9 0 C-9 0.66 -9 1.32 -9 2 C-9.66 2 -10.32 2 -11 2 C-11 2.66 -11 3.32 -11 4 C-10.34 3.67 -9.68 3.34 -9 3 C-8.67 2.01 -8.34 1.02 -8 0 C-4.71303767 -0.79953138 -3.28976808 -1.09658936 0 0 Z " fill="#50665C" transform="translate(242,61)"/>
<path d="M0 0 C0.99 0 1.98 0 3 0 C3.33 1.65 3.66 3.3 4 5 C5.65 5.33 7.3 5.66 9 6 C9 9.63 9 13.26 9 17 C8.01 17 7.02 17 6 17 C6 14.03 6 11.06 6 8 C5.01 8 4.02 8 3 8 C3 10.97 3 13.94 3 17 C2.01 17 1.02 17 0 17 C0 11.39 0 5.78 0 0 Z " fill="#0C271B" transform="translate(222,8)"/>
<path d="M0 0 C2.875 -0.125 2.875 -0.125 6 0 C8 2 8 2 8.1953125 4.3828125 C8.17210937 5.28773437 8.14890625 6.19265625 8.125 7.125 C8.10695313 8.03507812 8.08890625 8.94515625 8.0703125 9.8828125 C8.04710937 10.58148438 8.02390625 11.28015625 8 12 C1.84765625 12.09765625 1.84765625 12.09765625 0 12 C-1 11 -1 11 -1.125 8.5 C-1 6 -1 6 0 5 C1.66617115 4.95936168 3.33388095 4.957279 5 5 C5 4.34 5 3.68 5 3 C3.35 3 1.7 3 0 3 C0 2.01 0 1.02 0 0 Z " fill="#173125" transform="translate(320,13)"/>
<path d="M0 0 C2.375 -0.1875 2.375 -0.1875 5 0 C7.20914 3.31371 7.22481553 4.3446021 7.125 8.1875 C7.10695313 9.08855469 7.08890625 9.98960938 7.0703125 10.91796875 C7.03550781 11.94857422 7.03550781 11.94857422 7 13 C3.625 13.125 3.625 13.125 0 13 C-0.66 12.34 -1.32 11.68 -2 11 C-1.625 8.375 -1.625 8.375 -1 6 C0.65 6 2.3 6 4 6 C4 5.01 4 4.02 4 3 C2.35 3.33 0.7 3.66 -1 4 C-0.67 2.68 -0.34 1.36 0 0 Z " fill="#2C4539" transform="translate(316,37)"/>
<path d="M0 0 C0.66 0 1.32 0 2 0 C2 0.66 2 1.32 2 2 C4.31 2 6.62 2 9 2 C9 3.98 9 5.96 9 8 C7.2709226 8.02725341 5.54171824 8.04650987 3.8125 8.0625 C2.36810547 8.07990234 2.36810547 8.07990234 0.89453125 8.09765625 C-1.85576513 8.00486622 -4.32479591 7.62111685 -7 7 C-7 5.35 -7 3.7 -7 2 C-5.02 2 -3.04 2 -1 2 C-0.67 1.34 -0.34 0.68 0 0 Z " fill="#788981" transform="translate(284,59)"/>
<path d="M0 0 C1.1446875 0.3403125 1.1446875 0.3403125 2.3125 0.6875 C2.6425 2.6675 2.9725 4.6475 3.3125 6.6875 C1.3325 6.6875 -0.6475 6.6875 -2.6875 6.6875 C-2.3575 7.3475 -2.0275 8.0075 -1.6875 8.6875 C0.83983235 9.34305119 0.83983235 9.34305119 3.3125 9.6875 C3.3125 10.3475 3.3125 11.0075 3.3125 11.6875 C-2.0875 13.0075 -2.0875 13.0075 -4.5625 11.6875 C-6.29928961 8.59987402 -6.05892345 6.1541189 -5.6875 2.6875 C-3.97907171 -0.18985291 -3.34260852 -0.38867541 0 0 Z " fill="#153023" transform="translate(337.6875,37.3125)"/>
<path d="M0 0 C1.27875 -0.061875 2.5575 -0.12375 3.875 -0.1875 C4.95394531 -0.23970703 4.95394531 -0.23970703 6.0546875 -0.29296875 C6.69664062 -0.19628906 7.33859375 -0.09960938 8 0 C10.13586678 3.20380017 10.23132175 4.01939967 10.125 7.6875 C10.10695313 8.49574219 10.08890625 9.30398437 10.0703125 10.13671875 C10.03550781 11.05904297 10.03550781 11.05904297 10 12 C9.01 12 8.02 12 7 12 C6.67 9.36 6.34 6.72 6 4 C5.34 4 4.68 4 4 4 C3.67 6.64 3.34 9.28 3 12 C2.01 12 1.02 12 0 12 C0 8.04 0 4.08 0 0 Z " fill="#2A4438" transform="translate(249,13)"/>
<path d="M0 0 C3.96 0 7.92 0 12 0 C12 0.99 12 1.98 12 3 C10.35 3 8.7 3 7 3 C7 7.62 7 12.24 7 17 C6.01 17 5.02 17 4 17 C4 12.38 4 7.76 4 3 C2.68 3 1.36 3 0 3 C0 2.01 0 1.02 0 0 Z " fill="#092316" transform="translate(209,8)"/>
<path d="M0 0 C0.66 0 1.32 0 2 0 C2.33 3.3 2.66 6.6 3 10 C3.66 9.67 4.32 9.34 5 9 C5.46651207 6.87423218 5.46651207 6.87423218 5.625 4.4375 C5.69976562 3.61121094 5.77453125 2.78492188 5.8515625 1.93359375 C5.90054687 1.29550781 5.94953125 0.65742188 6 0 C6.99 0 7.98 0 9 0 C9 3.96 9 7.92 9 12 C2.84765625 12.09765625 2.84765625 12.09765625 1 12 C0 11 0 11 -0.09765625 8.49609375 C-0.08605469 7.48675781 -0.07445312 6.47742188 -0.0625 5.4375 C-0.05347656 4.42558594 -0.04445313 3.41367187 -0.03515625 2.37109375 C-0.02355469 1.58863281 -0.01195312 0.80617188 0 0 Z " fill="#122E20" transform="translate(342,13)"/>
<path d="M0 0 C0 0.66 0 1.32 0 2 C1.98 2 3.96 2 6 2 C6 3.98 6 5.96 6 8 C2.7 8 -0.6 8 -4 8 C-4.33 5.69 -4.66 3.38 -5 1 C-2 0 -2 0 0 0 Z " fill="#3B5448" transform="translate(344,59)"/>
<path d="M0 0 C5.28 0 10.56 0 16 0 C16 0.99 16 1.98 16 3 C17.65 2.67 19.3 2.34 21 2 C21 2.66 21 3.32 21 4 C13.41 4 5.82 4 -2 4 C-2 3.67 -2 3.34 -2 3 C-0.35 2.67 1.3 2.34 3 2 C2.01 1.34 1.02 0.68 0 0 Z " fill="#0D2F56" transform="translate(87,67)"/>
<path d="M0 0 C1.875 0.3125 1.875 0.3125 4 1 C4.7425 1.185625 5.485 1.37125 6.25 1.5625 C6.8275 1.706875 7.405 1.85125 8 2 C8 3.98 8 5.96 8 8 C4.7 8 1.4 8 -2 8 C-2.125 5.125 -2.125 5.125 -2 2 C-1.34 1.34 -0.68 0.68 0 0 Z " fill="#5F7369" transform="translate(330,59)"/>
<path d="M0 0 C2.625 0.375 2.625 0.375 5 1 C4.67 1.99 4.34 2.98 4 4 C2.68 3.67 1.36 3.34 0 3 C0 3.66 0 4.32 0 5 C1.65 5.33 3.3 5.66 5 6 C5.6875 7.8125 5.6875 7.8125 6 10 C4.9375 11.8125 4.9375 11.8125 3 13 C-0.1875 12.6875 -0.1875 12.6875 -3 12 C-2.34 11.01 -1.68 10.02 -1 9 C0.32 9.33 1.64 9.66 3 10 C3 9.34 3 8.68 3 8 C1.35 7.67 -0.3 7.34 -2 7 C-2.125 4.625 -2.125 4.625 -2 2 C-1.34 1.34 -0.68 0.68 0 0 Z " fill="#1E382B" transform="translate(345,37)"/>
<path d="M0 0 C0.66 0 1.32 0 2 0 C2.08076963 2.45898655 2.14037143 4.91533742 2.1875 7.375 C2.22520508 8.42300781 2.22520508 8.42300781 2.26367188 9.4921875 C2.29296875 11.5234375 2.29296875 11.5234375 2 15 C-1 17 -1 17 -4.1875 16.625 C-5.115625 16.41875 -6.04375 16.2125 -7 16 C-7 15.01 -7 14.02 -7 13 C-5.02 13 -3.04 13 -1 13 C-1.33 9.37 -1.66 5.74 -2 2 C-1.34 2 -0.68 2 0 2 C0 1.34 0 0.68 0 0 Z " fill="#173124" transform="translate(337,13)"/>
<path d="M0 0 C0.99 0 1.98 0 3 0 C3.33 1.98 3.66 3.96 4 6 C4.66 6 5.32 6 6 6 C6.33 4.02 6.66 2.04 7 0 C7.99 0 8.98 0 10 0 C9.01 3.63 8.02 7.26 7 11 C5.68 11 4.36 11 3 11 C2.01 7.37 1.02 3.74 0 0 Z " fill="#183226" transform="translate(283,38)"/>
<path d="M0 0 C0.99 0 1.98 0 3 0 C2.79375 1.0725 2.5875 2.145 2.375 3.25 C2.0123809 6.87619096 2.01637931 8.08291076 4 11 C0.58978257 10.21302675 -2.68885166 9.12880057 -6 8 C-6 6.35 -6 4.7 -6 3 C-4.0625 2.4375 -4.0625 2.4375 -2 2 C-1.67 2.33 -1.34 2.66 -1 3 C-0.67 2.01 -0.34 1.02 0 0 Z " fill="#485D54" transform="translate(219,39)"/>
<path d="M0 0 C1.1446875 0.3403125 1.1446875 0.3403125 2.3125 0.6875 C1.9825 1.6775 1.6525 2.6675 1.3125 3.6875 C0.3225 3.6875 -0.6675 3.6875 -1.6875 3.6875 C-1.6875 5.3375 -1.6875 6.9875 -1.6875 8.6875 C-0.3675 9.0175 0.9525 9.3475 2.3125 9.6875 C2.3125 10.3475 2.3125 11.0075 2.3125 11.6875 C0 12.375 0 12.375 -2.6875 12.6875 C-4.5 11.6875 -4.5 11.6875 -5.6875 9.6875 C-6.32285032 3.75756369 -6.32285032 3.75756369 -4.5 0.6875 C-2.6875 -0.3125 -2.6875 -0.3125 0 0 Z " fill="#152F23" transform="translate(310.6875,37.3125)"/>
<path d="M0 0 C2.31 0 4.62 0 7 0 C7 0.99 7 1.98 7 3 C6.01 3 5.02 3 4 3 C4 5.97 4 8.94 4 12 C2.68 12 1.36 12 0 12 C0 8.04 0 4.08 0 0 Z " fill="#3D564B" transform="translate(311,13)"/>
<path d="M0 0 C0.66 0 1.32 0 2 0 C2.66 0.99 3.32 1.98 4 3 C4.99 2.67 5.98 2.34 7 2 C7.33 1.34 7.66 0.68 8 0 C8.66 1.32 9.32 2.64 10 4 C10.66 4 11.32 4 12 4 C12 4.99 12 5.98 12 7 C7.38 7 2.76 7 -2 7 C-1.34 4.69 -0.68 2.38 0 0 Z " fill="#3F554A" transform="translate(212,59)"/>
<path d="M0 0 C0.99 0.33 1.98 0.66 3 1 C4.125 7.625 4.125 7.625 3 11 C1.68 11 0.36 11 -1 11 C-1 10.01 -1 9.02 -1 8 C-1.66 7.67 -2.32 7.34 -3 7 C-2.01 4.69 -1.02 2.38 0 0 Z " fill="#53695F" transform="translate(263,32)"/>
<path d="M0 0 C2 1 2 1 3.875 2.125 C6.39267692 3.1616905 7.48367565 2.89868727 10 2 C9.67 3.98 9.34 5.96 9 8 C5.65747276 8.07427838 3.1964086 8.06546953 0 7 C-1.125 2.25 -1.125 2.25 0 0 Z " fill="#3C5349" transform="translate(316,59)"/>
<path d="M0 0 C0.66 0 1.32 0 2 0 C2 1.32 2 2.64 2 4 C2.99 4 3.98 4 5 4 C5 4.66 5 5.32 5 6 C4.01 6 3.02 6 2 6 C2.34227572 8.97065509 2.34227572 8.97065509 3 12 C3.66 12.33 4.32 12.66 5 13 C5 13.99 5 14.98 5 16 C3.35 15.67 1.7 15.34 0 15 C0 12.03 0 9.06 0 6 C-0.66 6 -1.32 6 -2 6 C-2 5.34 -2 4.68 -2 4 C-1.34 4 -0.68 4 0 4 C0 2.68 0 1.36 0 0 Z " fill="#102B1E" transform="translate(326,34)"/>
<path d="M0 0 C0.66 0.99 1.32 1.98 2 3 C1.34 3.66 0.68 4.32 0 5 C-1.2065625 4.9690625 -1.2065625 4.9690625 -2.4375 4.9375 C-5.05688696 4.72535221 -5.05688696 4.72535221 -6.6875 6.5 C-7.120625 6.995 -7.55375 7.49 -8 8 C-8.66 8 -9.32 8 -10 8 C-9.64505955 5.37344067 -9.27538036 3.42031739 -7.8125 1.1875 C-5.1218647 -0.57533002 -3.13475017 -0.40018087 0 0 Z " fill="#253E32" transform="translate(239,32)"/>
<path d="M0 0 C0.66 0 1.32 0 2 0 C2 3.3 2 6.6 2 10 C3.32 10.33 4.64 10.66 6 11 C0.375 13 0.375 13 -3 13 C-2.68991116 11.39536551 -2.37683713 9.79130769 -2.0625 8.1875 C-1.88847656 7.29417969 -1.71445313 6.40085937 -1.53515625 5.48046875 C-1 3 -1 3 0 0 Z " fill="#103666" transform="translate(85,58)"/>
<path d="M0 0 C0.99 0 1.98 0 3 0 C3 1.65 3 3.3 3 5 C4.65 5.33 6.3 5.66 8 6 C8 6.66 8 7.32 8 8 C2.96488101 9.0070238 -0.23947038 8.97387813 -5 7 C-5 6.34 -5 5.68 -5 5 C-3.02 5 -1.04 5 1 5 C0.67 3.35 0.34 1.7 0 0 Z " fill="#D1DCD7" transform="translate(340,39)"/>
<path d="M0 0 C3.96 0 7.92 0 12 0 C12.33 0.99 12.66 1.98 13 3 C6.565 3.495 6.565 3.495 0 4 C0 2.68 0 1.36 0 0 Z " fill="#10325A" transform="translate(115,67)"/>
<path d="M0 0 C2.375 0.125 2.375 0.125 5 1 C6.8125 3.5625 6.8125 3.5625 8 6 C4.94736336 6.98120464 3.05263664 6.98120464 0 6 C-0.38218767 4.34385343 -0.71395102 2.67542976 -1 1 C-0.67 0.67 -0.34 0.34 0 0 Z " fill="#163024" transform="translate(315,43)"/>
<path d="M0 0 C0.99 0 1.98 0 3 0 C3.33 3.96 3.66 7.92 4 12 C3.01 12.33 2.02 12.66 1 13 C0.67 13.66 0.34 14.32 0 15 C0 10.05 0 5.1 0 0 Z " fill="#D9E3DF" transform="translate(339,13)"/>
<path d="M0 0 C0.33 0 0.66 0 1 0 C1.08096803 1.45742463 1.13917774 2.91612807 1.1875 4.375 C1.22230469 5.18710937 1.25710938 5.99921875 1.29296875 6.8359375 C1.19628906 7.55007812 1.09960938 8.26421875 1 9 C-2 11 -2 11 -5.1875 10.625 C-6.5796875 10.315625 -6.5796875 10.315625 -8 10 C-8 9.01 -8 8.02 -8 7 C-6.02 7 -4.04 7 -2 7 C-2.04125 6.21625 -2.0825 5.4325 -2.125 4.625 C-2 2 -2 2 0 0 Z " fill="#132E21" transform="translate(269,19)"/>
<path d="M0 0 C2.475 0.495 2.475 0.495 5 1 C5 4.63 5 8.26 5 12 C4.01 12 3.02 12 2 12 C2 9.03 2 6.06 2 3 C1.34 3 0.68 3 0 3 C0 2.01 0 1.02 0 0 Z " fill="#142E21" transform="translate(226,13)"/>
<path d="M0 0 C3.96 0 7.92 0 12 0 C12 0.99 12 1.98 12 3 C10.02 3 8.04 3 6 3 C5.67 3.99 5.34 4.98 5 6 C5 5.01 5 4.02 5 3 C3.35 3 1.7 3 0 3 C0 2.01 0 1.02 0 0 Z " fill="#0F2B1E" transform="translate(209,8)"/>
<path d="M0 0 C0.66 0 1.32 0 2 0 C2 0.66 2 1.32 2 2 C3.32 2.33 4.64 2.66 6 3 C5.67 4.65 5.34 6.3 5 8 C3.35 8 1.7 8 0 8 C0 5.36 0 2.72 0 0 Z " fill="#99A8A1" transform="translate(294,59)"/>
<path d="M0 0 C0.99 0.33 1.98 0.66 3 1 C2.67 1.66 2.34 2.32 2 3 C1.85624578 6.37822416 1.92463652 8.77390955 3 12 C-0.875 11.125 -0.875 11.125 -2 10 C-2.35897436 3.53846154 -2.35897436 3.53846154 0 0 Z " fill="#142F22" transform="translate(240,13)"/>
<path d="M0 0 C0.99 0 1.98 0 3 0 C3 3.96 3 7.92 3 12 C2.01 12 1.02 12 0 12 C0 8.04 0 4.08 0 0 Z " fill="#092317" transform="translate(233,13)"/>
<path d="M0 0 C0.99 0.33 1.98 0.66 3 1 C3.1953125 7.0546875 3.1953125 7.0546875 3 9 C2.34 9.66 1.68 10.32 1 11 C-1.125 10.625 -1.125 10.625 -3 10 C-2.34 9.34 -1.68 8.68 -1 8 C-0.95907063 5.66702567 -0.95758277 3.33294775 -1 1 C-0.67 0.67 -0.34 0.34 0 0 Z " fill="#153023" transform="translate(283,14)"/>
<path d="M0 0 C2.0625 0.4375 2.0625 0.4375 4 1 C2.68 1.33 1.36 1.66 0 2 C0.33 2.99 0.66 3.98 1 5 C1.99 5.33 2.98 5.66 4 6 C4.33 4.68 4.66 3.36 5 2 C5.99 2.33 6.98 2.66 8 3 C8 4.32 8 5.64 8 7 C1.84765625 7.09765625 1.84765625 7.09765625 0 7 C-1 6 -1 6 -1.125 3.5 C-1 1 -1 1 0 0 Z " fill="#394F45" transform="translate(261,59)"/>
<path d="M0 0 C0.33 0 0.66 0 1 0 C1.66 3.3 2.32 6.6 3 10 C2.01 10 1.02 10 0 10 C-0.33 10.66 -0.66 11.32 -1 12 C-1.33 10.02 -1.66 8.04 -2 6 C-2.66 6 -3.32 6 -4 6 C-3.34 4.68 -2.68 3.36 -2 2 C-1.34 2 -0.68 2 0 2 C0 1.34 0 0.68 0 0 Z " fill="#E8ECED" transform="translate(128,12)"/>
<path d="M0 0 C1.32 0 2.64 0 4 0 C4 1.98 4 3.96 4 6 C4.66 6 5.32 6 6 6 C6 6.99 6 7.98 6 9 C5.34 9 4.68 9 4 9 C3.67 9.66 3.34 10.32 3 11 C3 9.35 3 7.7 3 6 C2.01 6 1.02 6 0 6 C0 4.02 0 2.04 0 0 Z " fill="#A4B1AB" transform="translate(233,7)"/>
<path d="M0 0 C0.33 0.66 0.66 1.32 1 2 C1.66 2 2.32 2 3 2 C3 4.97 3 7.94 3 11 C3.66 11.33 4.32 11.66 5 12 C3.35 12 1.7 12 0 12 C-0.19401633 10.18818595 -0.38004375 8.37551468 -0.5625 6.5625 C-0.66691406 5.55316406 -0.77132813 4.54382812 -0.87890625 3.50390625 C-0.91886719 2.67761719 -0.95882813 1.85132813 -1 1 C-0.67 0.67 -0.34 0.34 0 0 Z " fill="#E0E7E3" transform="translate(323,38)"/>
<path d="M0 0 C0.99 0 1.98 0 3 0 C4.20272819 2.40545638 4.10071472 3.94996953 4.0625 6.625 C4.05347656 7.44226563 4.04445313 8.25953125 4.03515625 9.1015625 C4.02355469 9.72804688 4.01195312 10.35453125 4 11 C3.01 11 2.02 11 1 11 C0.67 7.37 0.34 3.74 0 0 Z " fill="#173226" transform="translate(255,14)"/>
<path d="M0 0 C1.65 0 3.3 0 5 0 C5 1.98 5 3.96 5 6 C2.03 6 -0.94 6 -4 6 C-2 4 -2 4 1 3 C0.67 2.01 0.34 1.02 0 0 Z " fill="#94A69E" transform="translate(244,61)"/>
<path d="M0 0 C1.32 0 2.64 0 4 0 C4.144375 1.11375 4.28875 2.2275 4.4375 3.375 C4.78372035 6.82142047 4.78372035 6.82142047 6 9 C5.01 9.33 4.02 9.66 3 10 C3 9.01 3 8.02 3 7 C2.01 6.67 1.02 6.34 0 6 C0 4.02 0 2.04 0 0 Z " fill="#DAE2E0" transform="translate(328,40)"/>
<path d="M0 0 C0 1.98 0 3.96 0 6 C-3.3 6 -6.6 6 -10 6 C-8.68 5.67 -7.36 5.34 -6 5 C-5.8453125 4.0409375 -5.8453125 4.0409375 -5.6875 3.0625 C-5.460625 2.381875 -5.23375 1.70125 -5 1 C-2 0 -2 0 0 0 Z " fill="#92A39B" transform="translate(350,61)"/>
<path d="M0 0 C2.31 0 4.62 0 7 0 C7.33 1.65 7.66 3.3 8 5 C5.36 5 2.72 5 0 5 C0 3.35 0 1.7 0 0 Z " fill="#395046" transform="translate(301,61)"/>
<path d="M0 0 C0.99 0 1.98 0 3 0 C3 1.98 3 3.96 3 6 C-0.3 6 -3.6 6 -7 6 C-6.67 5.01 -6.34 4.02 -6 3 C-6 3.66 -6 4.32 -6 5 C-3.50447516 4.21869929 -3.50447516 4.21869929 -1 3 C-0.67 2.01 -0.34 1.02 0 0 Z " fill="#889991" transform="translate(335,61)"/>
<path d="M0 0 C2.625 0.375 2.625 0.375 5 1 C4.67 1.99 4.34 2.98 4 4 C3.01 4 2.02 4 1 4 C0.34 5.32 -0.32 6.64 -1 8 C-1.66 7.34 -2.32 6.68 -3 6 C-2.63318342 3.06546739 -2.13562754 2.13562754 0 0 Z " fill="#1F3A2E" transform="translate(308,37)"/>
<path d="M0 0 C1.0625 1.8125 1.0625 1.8125 2 4 C1.67 4.99 1.34 5.98 1 7 C1.66 7.33 2.32 7.66 3 8 C1.68 8 0.36 8 -1 8 C-1 10.97 -1 13.94 -1 17 C-1.33 17 -1.66 17 -2 17 C-2.33 12.71 -2.66 8.42 -3 4 C-2.34 4 -1.68 4 -1 4 C-0.67 2.68 -0.34 1.36 0 0 Z " fill="#D6E2DD" transform="translate(272,8)"/>
<path d="M0 0 C0.99 0.33 1.98 0.66 3 1 C3.33 2.98 3.66 4.96 4 7 C2.35 7 0.7 7 -1 7 C-0.67 4.69 -0.34 2.38 0 0 Z " fill="#41584E" transform="translate(253,59)"/>
<path d="M0 0 C0.66 1.32 1.32 2.64 2 4 C3.32 4 4.64 4 6 4 C5.67 5.32 5.34 6.64 5 8 C0.125 7.125 0.125 7.125 -1 6 C-1.125 3.5 -1.125 3.5 -1 1 C-0.67 0.67 -0.34 0.34 0 0 Z " fill="#112D20" transform="translate(295,42)"/>
<path d="M0 0 C0.33 0 0.66 0 1 0 C1 5.28 1 10.56 1 16 C0.67 15.01 0.34 14.02 0 13 C-0.66 13 -1.32 13 -2 13 C-2.042721 11.33388095 -2.04063832 9.66617115 -2 8 C-1.67 7.67 -1.34 7.34 -1 7 C-0.63239269 4.67182036 -0.29758419 2.3381615 0 0 Z " fill="#0A2216" transform="translate(281,33)"/>
<path d="M0 0 C0.33 1.32 0.66 2.64 1 4 C1.66 4.33 2.32 4.66 3 5 C1.48601545 8.78496138 0.9855604 9.0072198 -3 11 C-2.01 7.37 -1.02 3.74 0 0 Z " fill="#214166" transform="translate(94,26)"/>
<path d="M0 0 C1.32 0 2.64 0 4 0 C4 1.98 4 3.96 4 6 C2.02 6 0.04 6 -2 6 C-1.34 5.67 -0.68 5.34 0 5 C0 3.35 0 1.7 0 0 Z " fill="#82938B" transform="translate(289,61)"/>
<path d="M0 0 C1.98 0 3.96 0 6 0 C6 1.65 6 3.3 6 5 C4.02 5 2.04 5 0 5 C0 3.35 0 1.7 0 0 Z " fill="#3F564D" transform="translate(270,61)"/>
<path d="M0 0 C4.875 0.875 4.875 0.875 6 2 C6.04063832 3.66617115 6.042721 5.33388095 6 7 C5.01 7.33 4.02 7.66 3 8 C2.87625 7.195625 2.7525 6.39125 2.625 5.5625 C2.315625 4.2940625 2.315625 4.2940625 2 3 C1.34 2.67 0.68 2.34 0 2 C0 1.34 0 0.68 0 0 Z " fill="#102A1D" transform="translate(245,38)"/>
<path d="M0 0 C0.33 0 0.66 0 1 0 C1.33 1.65 1.66 3.3 2 5 C2.33 3.35 2.66 1.7 3 0 C3.33 0 3.66 0 4 0 C4 2.97 4 5.94 4 9 C3.01 9.33 2.02 9.66 1 10 C-0.60725635 6.78548731 -0.05748185 3.56387464 0 0 Z " fill="#BCC8C3" transform="translate(344,13)"/>
<path d="M0 0 C0.66 0 1.32 0 2 0 C2.33 2.97 2.66 5.94 3 9 C1.35 9 -0.3 9 -2 9 C-1.34 6.03 -0.68 3.06 0 0 Z " fill="#EFF3F2" transform="translate(292,40)"/>
<path d="M0 0 C0.99 0.33 1.98 0.66 3 1 C3 2.65 3 4.3 3 6 C1.68 6 0.36 6 -1 6 C-1.042721 4.33388095 -1.04063832 2.66617115 -1 1 C-0.67 0.67 -0.34 0.34 0 0 Z " fill="#EFF5F3" transform="translate(276,40)"/>
<path d="M0 0 C2.12508244 3.18762365 2.5020163 5.26512223 3 9 C2.01 9 1.02 9 0 9 C-1.125 6.1875 -1.125 6.1875 -2 3 C-1.34 2.01 -0.68 1.02 0 0 Z " fill="#213B2F" transform="translate(268,41)"/>
<path d="M0 0 C0.99 0.33 1.98 0.66 3 1 C3 2.65 3 4.3 3 6 C1.68 6 0.36 6 -1 6 C-1.042721 4.33388095 -1.04063832 2.66617115 -1 1 C-0.67 0.67 -0.34 0.34 0 0 Z " fill="#EDF3F0" transform="translate(245,40)"/>
<path d="M0 0 C0.99 0 1.98 0 3 0 C4.125 4.75 4.125 4.75 3 7 C2.01 7 1.02 7 0 7 C0 4.69 0 2.38 0 0 Z " fill="#DEE5E2" transform="translate(297,40)"/>
<path d="M0 0 C0.99 0 1.98 0 3 0 C3 1.98 3 3.96 3 6 C2.01 6.33 1.02 6.66 0 7 C-0.38133299 5.0085944 -0.71325582 3.00720923 -1 1 C-0.67 0.67 -0.34 0.34 0 0 Z " fill="#E5ECE9" transform="translate(280,16)"/>
<path d="M0 0 C1.32 0.33 2.64 0.66 4 1 C3.67 2.98 3.34 4.96 3 7 C2.01 6.67 1.02 6.34 0 6 C0 4.02 0 2.04 0 0 Z " fill="#EAF1EE" transform="translate(241,16)"/>
<path d="M0 0 C1.65 0 3.3 0 5 0 C4.67 1.98 4.34 3.96 4 6 C3.01 6 2.02 6 1 6 C1 5.34 1 4.68 1 4 C0.34 3.67 -0.32 3.34 -1 3 C-0.34 3 0.32 3 1 3 C0.67 2.01 0.34 1.02 0 0 Z " fill="#9CADA7" transform="translate(308,61)"/>
<path d="M0 0 C2.64 0.66 5.28 1.32 8 2 C8 2.66 8 3.32 8 4 C5.125 4.625 5.125 4.625 2 5 C1.34 4.34 0.68 3.68 0 3 C0 2.01 0 1.02 0 0 Z " fill="#143023" transform="translate(333,45)"/>
<path d="M0 0 C0.66 0.33 1.32 0.66 2 1 C2.99 1.33 3.98 1.66 5 2 C4 5 4 5 1.9375 6.1875 C1.298125 6.455625 0.65875 6.72375 0 7 C-1 6 -1 6 -1.125 3.5 C-1 1 -1 1 0 0 Z " fill="#677A72" transform="translate(320,18)"/>
<path d="M0 0 C1.98 0 3.96 0 6 0 C6 0.66 6 1.32 6 2 C2.98509443 3.00496852 0.95818308 3.10335303 -2.1875 3.0625 C-3.53908203 3.04896484 -3.53908203 3.04896484 -4.91796875 3.03515625 C-5.60503906 3.02355469 -6.29210937 3.01195313 -7 3 C-7 2.67 -7 2.34 -7 2 C-4.69 2 -2.38 2 0 2 C0 1.34 0 0.68 0 0 Z " fill="#0B2848" transform="translate(128,68)"/>
<path d="M0 0 C1.98 0 3.96 0 6 0 C6 1.65 6 3.3 6 5 C4.02 5 2.04 5 0 5 C0 3.35 0 1.7 0 0 Z " fill="#284036" transform="translate(277,61)"/>
<path d="M0 0 C0.99 0 1.98 0 3 0 C3 1.98 3 3.96 3 6 C1.68 5.67 0.36 5.34 -1 5 C-0.67 3.35 -0.34 1.7 0 0 Z " fill="#E0E7E5" transform="translate(333,16)"/>
<path d="M0 0 C0.99 0 1.98 0 3 0 C3 1.98 3 3.96 3 6 C1.68 5.67 0.36 5.34 -1 5 C-0.67 3.35 -0.34 1.7 0 0 Z " fill="#E1E8E4" transform="translate(264,16)"/>
<path d="M0 0 C2.0625 0.4375 2.0625 0.4375 4 1 C3.01 1.495 3.01 1.495 2 2 C2.99 3.485 2.99 3.485 4 5 C1.69 5 -0.62 5 -3 5 C-1.125 1.125 -1.125 1.125 0 0 Z " fill="#6F827A" transform="translate(335,37)"/>
<path d="M0 0 C0.99 0 1.98 0 3 0 C2.67 1.98 2.34 3.96 2 6 C0.02 6 -1.96 6 -4 6 C-3.01 5.67 -2.02 5.34 -1 5 C-0.67 3.35 -0.34 1.7 0 0 Z " fill="#879990" transform="translate(323,61)"/>
<path d="M0 0 C0.99 0.33 1.98 0.66 3 1 C3 3.31 3 5.62 3 8 C2.01 7.34 1.02 6.68 0 6 C0 5.01 0 4.02 0 3 C-0.99 2.67 -1.98 2.34 -3 2 C-2.01 2 -1.02 2 0 2 C0 1.34 0 0.68 0 0 Z " fill="#082216" transform="translate(320,41)"/>
<path d="M0 0 C0.99 0.33 1.98 0.66 3 1 C2.67 3.31 2.34 5.62 2 8 C1.34 7.01 0.68 6.02 0 5 C-0.66 5.66 -1.32 6.32 -2 7 C-1.125 1.125 -1.125 1.125 0 0 Z " fill="#3B5449" transform="translate(295,38)"/>
<path d="M0 0 C0 0.66 0 1.32 0 2 C-2.75 2.6875 -2.75 2.6875 -6 3 C-8.375 1.5625 -8.375 1.5625 -10 0 C-6.30581799 -1.231394 -3.7943739 -0.64432764 0 0 Z " fill="#DFE7E4" transform="translate(325,16)"/>
<path d="M0 0 C1.32 0.33 2.64 0.66 4 1 C4 2.32 4 3.64 4 5 C2.68 5 1.36 5 0 5 C0 3.35 0 1.7 0 0 Z " fill="#51665E" transform="translate(234,61)"/>
<path d="M0 0 C2.475 0.495 2.475 0.495 5 1 C5 2.32 5 3.64 5 5 C3.68 4.67 2.36 4.34 1 4 C0.67 2.68 0.34 1.36 0 0 Z " fill="#445B52" transform="translate(224,61)"/>
<path d="M0 0 C2.00720923 0.28674418 4.0085944 0.61866701 6 1 C1.25 4.875 1.25 4.875 -1 6 C-1.042721 4.33388095 -1.04063832 2.66617115 -1 1 C-0.67 0.67 -0.34 0.34 0 0 Z " fill="#294336" transform="translate(333,41)"/>
<path d="M0 0 C0.33 0 0.66 0 1 0 C1 2.31 1 4.62 1 7 C0.67 6.34 0.34 5.68 0 5 C-2.52733235 4.34444881 -2.52733235 4.34444881 -5 4 C-5 3.34 -5 2.68 -5 2 C-3.68 2 -2.36 2 -1 2 C-0.67 1.34 -0.34 0.68 0 0 Z " fill="#DDE6E2" transform="translate(350,38)"/>
<path d="M0 0 C0.33 0.99 0.66 1.98 1 3 C2.65 2.67 4.3 2.34 6 2 C6 2.99 6 3.98 6 5 C4.02 5.33 2.04 5.66 0 6 C0 4.02 0 2.04 0 0 Z " fill="#CDD8D4" transform="translate(314,38)"/>
<path d="M0 0 C2.125 0.375 2.125 0.375 4 1 C3.67 2.65 3.34 4.3 3 6 C2.01 5.67 1.02 5.34 0 5 C0 4.34 0 3.68 0 3 C-0.66 2.67 -1.32 2.34 -2 2 C-1.34 1.34 -0.68 0.68 0 0 Z " fill="#657A70" transform="translate(213,32)"/>
<path d="M0 0 C0.99 0.33 1.98 0.66 3 1 C3 2.32 3 3.64 3 5 C1.68 5 0.36 5 -1 5 C-0.67 3.35 -0.34 1.7 0 0 Z " fill="#496056" transform="translate(297,61)"/>
<path d="M0 0 C0.99 0 1.98 0 3 0 C3.33 2.64 3.66 5.28 4 8 C3.34 8 2.68 8 2 8 C1.34 5.36 0.68 2.72 0 0 Z " fill="#E9EEEC" transform="translate(269,42)"/>
<path d="M0 0 C0.66 0 1.32 0 2 0 C3.625 2.5 3.625 2.5 5 5 C4.01 5.33 3.02 5.66 2 6 C1.67 5.01 1.34 4.02 1 3 C0.34 3 -0.32 3 -1 3 C-0.67 2.01 -0.34 1.02 0 0 Z " fill="#72877E" transform="translate(318,44)"/>
<path d="M0 0 C2.64 0 5.28 0 8 0 C8 0.99 8 1.98 8 3 C5.6568787 2.74438677 3.32156597 2.40729228 1 2 C0.67 1.34 0.34 0.68 0 0 Z " fill="#E6EBE9" transform="translate(335,45)"/>
<path d="M0 0 C0.625 1.8125 0.625 1.8125 1 4 C0.01 5.485 0.01 5.485 -1 7 C-1.66 6.67 -2.32 6.34 -3 6 C-2.42655063 3.13275314 -2.1385485 2.1385485 0 0 Z " fill="#0D315D" transform="translate(94,34)"/>
<path d="M0 0 C1.98 0 3.96 0 6 0 C5.67 0.99 5.34 1.98 5 3 C3.35 3 1.7 3 0 3 C0 2.01 0 1.02 0 0 Z " fill="#233C31" transform="translate(320,13)"/>
</svg>
