<svg xmlns="http://www.w3.org/2000/svg" xmlns:xlink="http://www.w3.org/1999/xlink" viewBox="0,0,256,256" width="48px" height="48px" fill-rule="nonzero"><g fill="none" fill-rule="nonzero" stroke="none" stroke-width="1" stroke-linecap="butt" stroke-linejoin="miter" stroke-miterlimit="10" stroke-dasharray="" stroke-dashoffset="0" font-family="none" font-weight="none" font-size="none" text-anchor="none" style="mix-blend-mode: normal"><g transform="scale(5.33333,5.33333)"><path d="M10.5,11c-2.5,0 -4.5,-2 -4.5,-4.5c0,-2.5 2,-4.5 4.5,-4.5c2.5,0 4.5,2 4.5,4.5c0,2.5 -2,4.5 -4.5,4.5" fill="#d4af37"></path><path d="M37.5,11c2.5,0 4.5,-2 4.5,-4.5c0,-2.5 -2,-4.5 -4.5,-4.5c-2.5,0 -4.5,2 -4.5,4.5c0,2.5 2,4.5 4.5,4.5" fill="#d4af37"></path><path d="M25.1,25.3l-3.7,-2.8l-1,-1.6c-4.819,-7.613 -5.377,-7.889 -9.886,-7.899c-0.005,0 -0.009,-0.001 -0.014,-0.001c-0.007,0 -0.013,0.001 -0.019,0.001c-0.16,0 -0.311,-0.001 -0.481,-0.001c-4.4,0 -7,3.6 -7,8v8l2.8,2l0.9,14h7.5l1.748,-23.312l2.552,3.712l4.3,3.2c0.4,0.3 0.8,0.4 1.2,0.4c0.6,0 1.2,-0.3 1.5,-0.9c0.7,-0.9 0.5,-2.1 -0.4,-2.8z" fill="#1b3f6b"></path><path d="M38,13c4.4,0 7,3.6 7,8h-13h-4.4c5,-8 5.4,-8 10.4,-8z" fill="#1b3f6b"></path><path d="M24,29c-0.6,0 -1.2,-0.3 -1.6,-0.8c-0.7,-0.9 -0.5,-2.1 0.4,-2.8l3.7,-2.8l5.1,-7.4c0.6,-0.9 1.9,-1.1 2.8,-0.5c0.9,0.6 1.1,1.9 0.5,2.8l-5.5,8l-4.3,3.2c-0.3,0.2 -0.7,0.3 -1.1,0.3z" fill="#1b3f6b"></path><path d="M45,21v8l-2.8,2l-0.9,14h-7.5l-1.8,-24l-3,4l1,-4c0,-4.4 3.4,-8 7.5,-8c4.1,0 7.5,3.6 7.5,8" fill="#1b3f6b"></path><path d="M28,26.4c-0.2,-1.1 -0.7,-2 -1.6,-2.6l-0.7,-0.6l-1.7,1.3l1.2,0.9c0.9,0.7 1.1,1.9 0.4,2.8c-0.1,0.2 -0.3,0.3 -0.5,0.4h0.1l2.8,-2.2c0,0.1 0,0.1 0,0z" fill="#455a64"></path><path d="M23.4,28.9c0.2,0.1 0.4,0.1 0.6,0.1c-0.2,0 -0.4,0 -0.6,-0.1z" fill="#455a64"></path><path d="M22.9,28.6c0.1,0.1 0.3,0.2 0.4,0.2c-0.2,0 -0.3,-0.1 -0.4,-0.2z" fill="#455a64"></path><path d="M24.7,28.9c-0.1,0 -0.1,0 -0.2,0.1c0.1,-0.1 0.2,-0.1 0.2,-0.1z" fill="#455a64"></path><path d="M41.895,30.096l-0.009,-1.58l-0.886,-9.516l-1,14z" fill="#455a64"></path><g><path d="M45,40h-8c-1.105,0 -2,-0.895 -2,-2v-6c0,-1.105 0.895,-2 2,-2h8c1.105,0 2,0.895 2,2v6c0,1.105 -0.895,2 -2,2z" fill="#d4af37"></path><path d="M41.888,28.5h-2c-0.567,0 -1,0.433 -1,1v1l3,-0.5c0,0 0,-1 0,-1.5z" fill="#bdbdbd"></path><path d="M46,34.286h-10c-0.552,0 -1,-0.448 -1,-1v-2.286c0,-0.552 0.448,-1 1,-1h10c0.552,0 1,0.448 1,1v2.286c0,0.552 -0.448,1 -1,1z" fill="#d4af37"></path><path d="M41.5,35h-1c-0.3,0 -0.5,-0.2 -0.5,-0.5v-1c0,-0.3 0.2,-0.5 0.5,-0.5h1c0.3,0 0.5,0.2 0.5,0.5v1c0,0.3 -0.2,0.5 -0.5,0.5z" fill="#fff3e0"></path></g></g></g></svg>