<svg xmlns="http://www.w3.org/2000/svg" xmlns:xlink="http://www.w3.org/1999/xlink" viewBox="0,0,256,256" width="48px" height="48px" fill-rule="nonzero"><g fill="none" fill-rule="nonzero" stroke="none" stroke-width="1" stroke-linecap="butt" stroke-linejoin="miter" stroke-miterlimit="10" stroke-dasharray="" stroke-dashoffset="0" font-family="none" font-weight="none" font-size="none" text-anchor="none" style="mix-blend-mode: normal"><g transform="scale(5.33333,5.33333)"><path d="M10,42h28c2.2,0 4,-1.8 4,-4v-22.3c0,-1.6 -1,-3.1 -2.6,-3.7l-15.4,-6l-15.4,6c-1.6,0.6 -2.6,2.1 -2.6,3.7v22.3c0,2.2 1.8,4 4,4z" fill="#1b3f6b"></path><path d="M11.341,28.161l18.787,-5.226l-0.804,-2.89l-18.787,5.226c-0.798,0.222 -1.265,1.049 -1.043,1.847v0c0.222,0.798 1.049,1.265 1.847,1.043z" fill="#d4af37"></path><rect x="20.87645" y="23.17214" transform="rotate(-15.549)" width="7" height="11" fill="#222222"></rect><path d="M33.123,16.912l-5.78,1.608c-0.798,0.222 -1.625,-0.245 -1.847,-1.043v0c-0.222,-0.798 0.245,-1.625 1.043,-1.847l5.78,-1.608c0.798,-0.222 1.625,0.245 1.847,1.043v0c0.222,0.798 -0.245,1.625 -1.043,1.847z" fill="#d4af37"></path><path d="M35.803,26.546l-5.78,1.608c-0.798,0.222 -1.625,-0.245 -1.847,-1.043v0c-0.222,-0.798 0.245,-1.625 1.043,-1.847l5.78,-1.608c0.798,-0.222 1.625,0.245 1.847,1.043v0c0.222,0.798 -0.245,1.625 -1.043,1.847z" fill="#d4af37"></path><path d="M25,37h13v-1.938c0,-1.139 -0.923,-2.062 -2.062,-2.062h-8.876c-1.139,0 -2.062,0.923 -2.062,2.062z" fill="#d4af37"></path></g></g></svg>