<svg xmlns="http://www.w3.org/2000/svg" xmlns:xlink="http://www.w3.org/1999/xlink" viewBox="0,0,256,256" width="48px" height="48px" fill-rule="nonzero"><g fill="none" fill-rule="nonzero" stroke="none" stroke-width="1" stroke-linecap="butt" stroke-linejoin="miter" stroke-miterlimit="10" stroke-dasharray="" stroke-dashoffset="0" font-family="none" font-weight="none" font-size="none" text-anchor="none" style="mix-blend-mode: normal"><g transform="scale(5.33333,5.33333)"><path d="M29,18.9h10v11.2h-10z" fill="#d4af37"></path><path d="M44,37v9h-20v-9c0,-6.9 6.9,-8.1 6.9,-8.1h6.3c-0.1,0 6.8,1.2 6.8,8.1z" fill="#1b3f6b"></path><path d="M34,32.3c-2.4,0 -3,-3.3 -3,-3.3v-3.9h6v3.9c0,0 -0.6,3.3 -3,3.3z" fill="#d4af37"></path><path d="M40,17.3c0,-5.1 -12,-3.3 -12,0c0,0.7 0,4 0,4.7c0,3.3 2.7,6 6,6c3.3,0 6,-2.7 6,-6c0,-0.7 0,-4 0,-4.7z" fill="#ffb74d"></path><path d="M34,11c-3.8,0 -9,2.7 -9,17l4,1.5v-8.5l7,-4l3,3v9.5l4,-2.5c0,-5.3 -0.2,-15 -6.6,-15l-0.6,-1z" fill="#d4af37"></path><path d="M34,33c-2.7,0 -3,-4 -3,-4c0,0 0.9,3 3,3c2.1,0 3,-3 3,-3c0,0 -0.3,4 -3,4z" fill="#ffb74d"></path><path d="M36.5,22c-0.331,0 -0.6,0.269 -0.6,0.6c0,0.331 0.269,0.6 0.6,0.6c0.331,0 0.6,-0.269 0.6,-0.6c0,-0.331 -0.269,-0.6 -0.6,-0.6zM31.5,21.9c-0.331,0 -0.6,0.269 -0.6,0.6c0,0.331 0.269,0.6 0.6,0.6c0.331,0 0.6,-0.269 0.6,-0.6c0,-0.331 -0.269,-0.6 -0.6,-0.6z" fill="#784719"></path><path d="M14,32.6c-3.2,0 -3,-3.6 -3,-3.6v-3.6h6v3.6c0,0 0.2,3.6 -3,3.6z" fill="#d4af37"></path><path d="M19.5,20c-0.828,0 -1.5,0.672 -1.5,1.5c0,0.828 0.672,1.5 1.5,1.5c0.828,0 1.5,-0.672 1.5,-1.5c0,-0.828 -0.672,-1.5 -1.5,-1.5zM8.5,20c-0.828,0 -1.5,0.672 -1.5,1.5c0,0.828 0.672,1.5 1.5,1.5c0.828,0 1.5,-0.672 1.5,-1.5c0,-0.828 -0.672,-1.5 -1.5,-1.5z" fill="#ffa726"></path><path d="M20,17.3c0,-5.1 -12,-3.3 -12,0c0,0.7 0,4 0,4.7c0,3.3 2.7,6 6,6c3.3,0 6,-2.7 6,-6c0,-0.7 0,-4 0,-4.7z" fill="#ffb74d"></path><path d="M14,11c-4.3,0 -7,3.4 -7,7.7c0,0.6 0,2.3 0,2.3l1.4,0.5v-3.5l8.4,-2.8l2.8,2.8v3.5l1.4,-0.5c0,0 0,-1.7 0,-2.3c0,-2.8 -0.7,-5.6 -4.2,-6.3l-0.7,-1.4z" fill="#424242"></path><path d="M16.5,20.9c-0.331,0 -0.6,0.269 -0.6,0.6c0,0.331 0.269,0.6 0.6,0.6c0.331,0 0.6,-0.269 0.6,-0.6c0,-0.331 -0.269,-0.6 -0.6,-0.6zM11.5,20.9c-0.331,0 -0.6,0.269 -0.6,0.6c0,0.331 0.269,0.6 0.6,0.6v0c0.331,0 0.6,-0.269 0.6,-0.6c0,-0.331 -0.269,-0.6 -0.6,-0.6z" fill="#784719"></path><path d="M17,28.9c0,0 -0.4,2.1 -3,2.1c-2.6,0 -3,-2.1 -3,-2.1c0,0 -7,1.2 -7,8.1v9h20v-9c0,-6.9 -7,-8.1 -7,-8.1z" fill="#1b3f6b"></path><path d="M24,45c-2.2,0 -2,-2 -2,-2v-2.8h4v2.8c0,0 0.2,2 -2,2z" fill="#d4af37"></path><path d="M28,36.1c-0.552,-0.001 -1.001,0.446 -1.001,0.999c-0.001,0.552 0.446,1.001 0.999,1.001c0.001,0 0.002,0 0.003,0c0.552,0.001 1.001,-0.446 1.001,-0.999c0.001,-0.552 -0.446,-1.001 -0.999,-1.001c-0.001,0 -0.002,0 -0.003,0zM20,36.1c-0.552,-0.001 -1.001,0.446 -1.001,0.999c-0.001,0.552 0.446,1.001 0.999,1.001c0.001,0 0.002,0 0.003,0c0.552,0.001 1.001,-0.446 1.001,-0.999c0.001,-0.552 -0.446,-1.001 -0.999,-1.001c-0.001,0 -0.002,0 -0.003,0z" fill="#ffa726"></path><path d="M28,35c0,-3.4 -8,-2.2 -8,0c0,0.5 0,2.6 0,3.1c0,2.2 1.8,4 4,4c2.2,0 4,-1.8 4,-4c0,-0.5 0,-2.7 0,-3.1z" fill="#ffb74d"></path><path d="M24,30c-3,0 -5,2.533 -5,5.573c0,0.405 0,1.621 0,1.621l1,0.405v-2.533l6,-2.027l2,2.027v2.534l1,-0.405c0,0 0,-1.216 0,-1.621c0,-2.027 -0.5,-4.053 -3,-4.56l-0.5,-1.014z" fill="#d4af37"></path><path d="M25.5,37c-0.276,0 -0.5,0.224 -0.5,0.5c0,0.276 0.224,0.5 0.5,0.5c0.276,0 0.5,-0.224 0.5,-0.5c0,-0.276 -0.224,-0.5 -0.5,-0.5zM22.5,37c-0.276,0 -0.5,0.224 -0.5,0.5c0,0.276 0.224,0.5 0.5,0.5c0.276,0 0.5,-0.224 0.5,-0.5c0,-0.276 -0.224,-0.5 -0.5,-0.5z" fill="#784719"></path><path d="M26,42.3c0,0 -0.3,1.7 -2,1.7c-1.7,0 -2,-1.7 -2,-1.7c-0.354,-0.003 -2.736,0.017 -4.158,1.857c-0.513,0.664 -0.737,1.352 -0.842,1.843c4.667,0 9.333,0 14,0c-0.105,-0.491 -0.329,-1.179 -0.842,-1.843c-1.422,-1.84 -3.804,-1.86 -4.158,-1.857z" fill="#00bcd4"></path><path d="M44.644,11.935l-20.644,-7.865l-20.644,7.865l-0.712,-1.87l21.356,-8.135l21.356,8.135z" fill="#1b3f6b"></path></g></g></svg>