<svg xmlns="http://www.w3.org/2000/svg" xmlns:xlink="http://www.w3.org/1999/xlink" viewBox="0,0,256,256" width="48px" height="48px" fill-rule="nonzero"><g fill="none" fill-rule="nonzero" stroke="none" stroke-width="1" stroke-linecap="butt" stroke-linejoin="miter" stroke-miterlimit="10" stroke-dasharray="" stroke-dashoffset="0" font-family="none" font-weight="none" font-size="none" text-anchor="none" style="mix-blend-mode: normal"><g transform="scale(5.33333,5.33333)"><path d="M22,25c0,0 10.083,0 12,0c1.917,0 2.4,1.999 2.4,1.999l2.6,12.003h-4l-3,-10h-10z" fill="#1b3f6b"></path><path d="M27.313,29h-8.021l-3.292,-12c0,0 -1,-4.001 3,-4v0c4,0.002 5,4 5,4z" fill="#1b3f6b"></path><path d="M20,25c-4.97056,0 -9,4.02944 -9,9c0,4.97056 4.02944,9 9,9c4.97056,0 9,-4.02944 9,-9c0,-4.97056 -4.02944,-9 -9,-9z" fill="#d4af37"></path><path d="M35.744,39l-3,-10h-5.262c0.412,0.616 0.743,1.289 0.994,2h2.779l3,10h6.745v-2zM15.085,26.466c0.569,-0.372 1.185,-0.677 1.833,-0.913l-3.137,-12.553h-6.781v2h5.219z" fill="#222222"></path><path d="M20,44c-5.514,0 -10,-4.486 -10,-10c0,-5.514 4.486,-10 10,-10c5.514,0 10,4.486 10,10c0,5.514 -4.486,10 -10,10zM20,26c-4.411,0 -8,3.589 -8,8c0,4.411 3.589,8 8,8c4.411,0 8,-3.589 8,-8c0,-4.411 -3.589,-8 -8,-8z" fill="#222222"></path><path d="M20,32c-1.10457,0 -2,0.89543 -2,2c0,1.10457 0.89543,2 2,2c1.10457,0 2,-0.89543 2,-2c0,-1.10457 -0.89543,-2 -2,-2z" fill="#222222"></path><g fill="#d4af37"><path d="M18,4c-2.20914,0 -4,1.79086 -4,4c0,2.20914 1.79086,4 4,4c2.20914,0 4,-1.79086 4,-4c0,-2.20914 -1.79086,-4 -4,-4zM27.717,21.116h-5.594l-1.27,-5.55c-0.375,-1.047 -1.206,-1.82 -2.484,-1.386c-1.277,0.434 -1.271,1.972 -0.824,2.936l1.769,5.9c0.103,0.258 0.263,0.48 0.46,0.657c0.3,0.268 0.687,0.312 1.104,0.326h6.84c0,0 1.375,0.179 1.375,-1.353c0,-1.532 -1.376,-1.53 -1.376,-1.53z"></path></g></g></g></svg>