<svg xmlns="http://www.w3.org/2000/svg" xmlns:xlink="http://www.w3.org/1999/xlink" viewBox="0,0,256,256" width="48px" height="48px" fill-rule="nonzero"><g fill="none" fill-rule="nonzero" stroke="none" stroke-width="1" stroke-linecap="butt" stroke-linejoin="miter" stroke-miterlimit="10" stroke-dasharray="" stroke-dashoffset="0" font-family="none" font-weight="none" font-size="none" text-anchor="none" style="mix-blend-mode: normal"><g transform="scale(5.33333,5.33333)"><path d="M22,30h-17v-21.818c0,-1.206 0.895,-2.182 2,-2.182h13c1.105,0 2,0.976 2,2.182z" fill="#1b3f6b"></path><rect x="7" y="8" width="3" height="3" fill="#d4af37"></rect><rect x="12" y="8" width="3" height="3" fill="#d4af37"></rect><rect x="17" y="8" width="3" height="3" fill="#d4af37"></rect><rect x="7" y="13" width="3" height="3" fill="#d4af37"></rect><rect x="12" y="13" width="3" height="3" fill="#d4af37"></rect><rect x="7" y="18" width="3" height="3" fill="#d4af37"></rect><rect x="12" y="18" width="3" height="3" fill="#d4af37"></rect><rect x="7" y="23" width="3" height="3" fill="#d4af37"></rect><rect x="12" y="23" width="3" height="3" fill="#d4af37"></rect><path d="M5,28h17v2h-17z" fill="#d4af37"></path><g><path d="M32,36h-17v-21.818c0,-1.206 0.895,-2.182 2,-2.182h13c1.105,0 2,0.976 2,2.182z" fill="#1b3f6b"></path><rect x="17" y="14" width="3" height="3" fill="#d4af37"></rect><rect x="22" y="14" width="3" height="3" fill="#d4af37"></rect><rect x="27" y="14" width="3" height="3" fill="#d4af37"></rect><rect x="17" y="19" width="3" height="3" fill="#d4af37"></rect><rect x="22" y="19" width="3" height="3" fill="#d4af37"></rect><rect x="17" y="24" width="3" height="3" fill="#d4af37"></rect><rect x="22" y="24" width="3" height="3" fill="#d4af37"></rect><rect x="17" y="29" width="3" height="3" fill="#d4af37"></rect><rect x="22" y="29" width="3" height="3" fill="#d4af37"></rect><path d="M15,34h17v2h-17z" fill="#d4af37"></path></g><g><path d="M42,42h-17v-21.818c0,-1.206 0.895,-2.182 2,-2.182h13c1.105,0 2,0.976 2,2.182z" fill="#1b3f6b"></path><rect x="27" y="20" width="3" height="3" fill="#d4af37"></rect><rect x="32" y="20" width="3" height="3" fill="#d4af37"></rect><rect x="37" y="20" width="3" height="3" fill="#d4af37"></rect><rect x="27" y="25" width="3" height="3" fill="#d4af37"></rect><rect x="32" y="25" width="3" height="3" fill="#d4af37"></rect><rect x="37" y="25" width="3" height="3" fill="#d4af37"></rect><rect x="27" y="30" width="3" height="3" fill="#d4af37"></rect><rect x="32" y="30" width="3" height="3" fill="#d4af37"></rect><rect x="37" y="30" width="3" height="3" fill="#d4af37"></rect><rect x="27" y="35" width="3" height="3" fill="#d4af37"></rect><rect x="32" y="35" width="3" height="3" fill="#d4af37"></rect><rect x="37" y="35" width="3" height="3" fill="#d4af37"></rect><path d="M25,40h17v2h-17z" fill="#d4af37"></path></g></g></g></svg>